<svg xmlns="http://www.w3.org/2000/svg" version="1.1" xmlns:xlink="http://www.w3.org/1999/xlink" xmlns:svgjs="http://svgjs.dev/svgjs" width="100%" height="100%" viewBox="0 0 1000 600"><rect width="1000" height="600" x="0" y="0" fill="#6690d4"/><g><circle r="166.66666666666666" cx="325.4161173502604" cy="347.63839439710796" fill="#657287" transform="matrix(0.7874039918968259,0,0,0.7874039918968261,0,26.26814585178255)"/><path d="M281.24603297289815 272.6383757952278L325.4014960383361 401.5688212252162L370.1121899431145 272.6383757952278L387.26590061115695 272.6383757952278L378.73287929076787 296.9808646989404L335.68787790401063 422.63837044439606L315.6411223362473 422.63837044439606L272.5084529222258 296.9808646989404L263.7708728715534 272.6383757952278L281.24603297289815 272.6383757952278ZM258.1308964508853 272.6383757952278L258.1308964508853 272.6383757952278L276.1028420400609 272.6383757952278L273.20979714033996 298.8511159472449L269.93685745580717 422.63837044439606L250.94211821521503 422.63837044439606Q251.55579440606493 418.31341443269196 252.16947059691483 408.11470059428177Q252.78314678776474 397.8867640801168 253.4844910058789 384.12288379962615Q254.21505789974782 370.3590035191355 254.88717944210725 355.0755440993976Q255.55930098446666 339.82130735541443 256.11453182380706 325.23919215379055Q256.6697626631474 310.6570769521668 257.1373254752235 298.73422524422585Q257.6048882872997 286.811373536285 257.8678923690925 279.7394860036337Q258.1308964508853 272.6383757952278 258.1308964508853 272.6383757952278ZM399.89009653721206 422.63837044439606L399.89009653721206 422.63837044439606L380.8953572966199 422.63837044439606L378.00231239689896 298.8511159472449L374.72937271236617 272.6383757952278L392.7013183015418 272.6383757952278Q393.2273264651274 289.3829690027036 393.9286706832416 308.0854814857481Q394.6592375771105 326.78799396879276 395.4190271467342 345.1690570185349Q396.20803939211265 363.5793427440319 396.9678289617363 379.47647835461976Q397.72761853136 395.4028366409624 398.51663077673845 406.7704575095629Q399.2764203463621 418.10885570240873 399.89009653721206 422.63837044439606Z " fill="#edf0f5" transform="matrix(0.7874039918968259,0,0,0.7874039918968261,0,26.26814585178255)"/><path d="M575.4161016371368 298.94679316158897L575.4161016371368 285.5562805465463L637.7213691577178 285.5562805465463L637.7213691577178 298.94679316158897L615.1150331546751 298.94679316158897L615.1150331546751 406.93733901584505L637.7213691577178 406.93733901584505L637.7213691577178 420.32785163088784L575.4161016371368 420.32785163088784L575.4161016371368 406.93733901584505L597.576087219678 406.93733901584505L597.576087219678 298.94679316158897L575.4161016371368 298.94679316158897ZM707.4308024772048 302.64887606104196L707.4308024772048 285.5562805465463L814.02978525578 285.5562805465463L814.02978525578 302.64887606104196Q808.4897888601447 301.4411043349793 803.081071999951 301.1260334499194Q797.6986110468456 300.78470665777127 791.4234492527373 300.78470665777127L791.4234492527373 300.78470665777127L769.2634636701961 300.78470665777127L769.2634636701961 380.182569692848Q769.2634636701961 393.83564137877386 769.5785345552559 404.3117483070132Q769.9198613474041 414.78785523525244 771.1013771663785 420.32785163088784L771.1013771663785 420.32785163088784L749.8866042390167 420.32785163088784Q751.068120057991 414.78785523525244 751.4094468501391 404.3117483070132Q751.7245177351989 393.83564137877386 751.7245177351989 380.182569692848L751.7245177351989 380.182569692848L751.7245177351989 300.78470665777127L730.0371384802474 300.78470665777127Q723.8407444074043 300.78470665777127 718.4057716401221 301.1260334499194Q712.9445429657518 301.4411043349793 707.4308024772048 302.64887606104196L707.4308024772048 302.64887606104196ZM911.3341769250903 375.5615300453038L911.3341769250903 375.5615300453038L842.6487239820477 375.5615300453038L842.6487239820477 362.64362375785095L894.7929554594493 362.64362375785095Q894.7929554594493 350.723441939754 888.2814905015463 344.44828014564587Q881.7962814507315 338.1731183515376 871.7140131288169 338.1731183515376L871.7140131288169 338.1731183515376Q859.6362958681901 338.1731183515376 852.7572482110505 346.75879996941785Q845.878200553911 355.3444815872982 845.878200553911 373.7236165491215L845.878200553911 373.7236165491215Q845.878200553911 390.7899561565289 854.2275790079965 399.0868227964377Q862.5769574620819 407.40994534343486 875.4160960282699 407.40994534343486L875.4160960282699 407.40994534343486Q884.3693603453867 407.40994534343486 893.0075537774436 405.33572868345766Q901.6194913024123 403.26151202348046 910.0213815706744 398.1678660483466L910.0213815706744 398.1678660483466L911.885550973945 413.39629215957154Q902.0920976300021 418.4899381347054 892.955041963267 420.5641547946826Q883.817986296532 422.63837145465993 873.1055762044979 422.63837145465993L873.1055762044979 422.63837145465993Q861.3954416431076 422.63837145465993 851.2869174141048 417.1771427802895Q841.1783931851019 411.74217001300747 834.9819991122587 401.02975992097333Q828.8118609465037 390.3173498289392 828.8118609465037 374.6425732972127L828.8118609465037 374.6425732972127Q828.8118609465037 359.3091235576344 834.194321899609 348.0453394167455Q839.6030387598028 336.7815552758567 849.5277716391873 330.5589052959251Q859.4525045185719 324.3362553159934 873.1055762044979 324.3362553159934L873.1055762044979 324.3362553159934Q884.5531516950049 324.3362553159934 891.9835734009993 328.19587365797634Q899.4139951069934 332.08174790704754 903.6674520553012 338.54070105077403Q907.8946530965205 344.9996541945005 909.653798871438 352.7976585997312Q911.4129446463552 360.59566300496203 911.4129446463552 368.36741150310445L911.4129446463552 368.36741150310445Q911.4129446463552 369.54892732207884 911.4129446463552 371.9119589600275Q911.4129446463552 374.2749905979763 911.3341769250903 375.5615300453038ZM1004.6476707169762 396.3299525521642L1004.6476707169762 396.3299525521642L1006.4855842131584 412.47733541148045Q999.4752570205773 417.75477273623255 992.2811384783779 420.1965720954462Q985.0870199361784 422.63837145465993 974.6371689150275 422.63837145465993L974.6371689150275 422.63837145465993Q962.2706366764293 422.63837145465993 952.1096006332497 416.86207189522975Q941.9748204971587 411.08577233579945 935.9097059597569 400.425874057942Q929.8708473294436 389.76597578008443 929.8708473294436 375.0889237177141L929.8708473294436 375.0889237177141Q929.8708473294436 361.1470370538167 935.7259146101387 349.6206938420447Q941.607237797922 338.09435063027263 952.3984156112214 331.215302973133Q963.1895934245205 324.3362553159934 977.8666454868907 324.3362553159934L977.8666454868907 324.3362553159934Q987.108724781979 324.3362553159934 993.8039810895003 326.4892396972356Q1000.4992373970217 328.66847998556614 1005.5666274650672 332.1867715354008L1005.5666274650672 332.1867715354008L1002.337150893204 348.7805048152185Q996.1407568203607 344.1857210747627 989.8655950262525 341.8752012509906Q983.5904332321442 339.5646814272185 976.5013383182982 339.5646814272185L976.5013383182982 339.5646814272185Q964.2135738009648 339.5646814272185 955.8116835327029 348.7017370939535Q947.4097932644407 357.83879276068853 947.4097932644407 374.1699669696229L947.4097932644407 374.1699669696229Q947.4097932644407 389.03081038161156 955.2603094838481 398.22037786252315Q963.1108257032555 407.40994534343486 976.5013383182982 407.40994534343486L976.5013383182982 407.40994534343486Q984.7982049582071 407.40994534343486 991.7297644295231 404.5480514708081Q998.6350679937511 401.68615759818135 1004.6476707169762 396.3299525521642ZM1045.7119094031073 366.79205707780534L1045.7119094031073 366.79205707780534L1045.7119094031073 420.32785163088784L1028.6455697956999 420.32785163088784Q1028.6455697956999 409.1690911183522 1028.6455697956999 396.5662557159591Q1028.6455697956999 383.96342031356596 1028.6455697956999 371.4130967253494Q1028.6455697956999 358.862773137133 1028.6455697956999 347.67775671750906Q1028.6455697956999 336.5189962049735 1028.6455697956999 328.248385472153Q1028.6455697956999 320.0040306464208 1028.6455697956999 316.01313276899634L1028.6455697956999 316.01313276899634Q1028.6455697956999 301.15228935700776 1028.4617784460816 289.8622493090306Q1028.2779870964632 278.54595335396505 1027.2540067200189 272.6383742590933L1027.2540067200189 272.6383742590933L1045.7119094031073 272.6383742590933Q1045.7119094031073 283.4295520723924 1045.7119094031073 295.29722207631266Q1045.7119094031073 307.1648920802328 1045.7119094031073 317.77227854391367Q1045.7119094031073 328.37966500759455 1045.7119094031073 335.4425040143524Q1045.7119094031073 342.5053430211102 1045.7119094031073 343.7131147471729L1045.7119094031073 343.7131147471729Q1052.5384452460698 334.10345275284817 1061.833036355335 329.2198540344208Q1071.1013715575116 324.3362553159934 1080.7898012731011 324.3362553159934L1080.7898012731011 324.3362553159934Q1095.571876963825 324.3362553159934 1103.4223931832323 333.9721732174065Q1111.2466534955515 343.6343470259079 1111.2466534955515 362.64362375785095L1111.2466534955515 362.64362375785095Q1111.2466534955515 366.79205707780534 1111.2466534955515 373.7236165491215Q1111.2466534955515 380.6289201133494 1111.2466534955515 388.84701903199334Q1111.2466534955515 397.06511795063716 1111.2466534955515 405.283216869281Q1111.2466534955515 413.5013157879249 1111.2466534955515 420.32785163088784L1111.2466534955515 420.32785163088784L1094.1803138881442 420.32785163088784Q1094.1803138881442 414.13145755804453 1094.1803138881442 406.8060594804035Q1094.1803138881442 399.4544054956742 1094.1803138881442 392.2077751392982Q1094.1803138881442 384.9874006900104 1094.1803138881442 378.97479796678533Q1094.1803138881442 372.96219524356025 1094.1803138881442 369.54892732207884L1094.1803138881442 369.54892732207884Q1094.1803138881442 358.02258411030675 1092.1586090423434 351.6949105020219Q1090.1106482894545 345.36723689373696 1086.014726783677 342.9254375345233Q1081.8925493708107 340.4836381753097 1075.7224112050558 340.4836381753097L1075.7224112050558 340.4836381753097Q1069.079666711711 340.4836381753097 1062.988296267221 344.44828014564587Q1056.8969258227312 348.41292211598204 1052.3283979893636 354.4780366533837Q1047.759870155996 360.51689528369707 1045.7119094031073 366.79205707780534Z " fill="#f7f7f9" transform="matrix(0.7874039918968259,0,0,0.7874039918968261,0,26.26814585178255)"/></g></svg>